<svg xmlns="http://www.w3.org/2000/svg" width="41" height="42"><path fill-rule="evenodd" d="M40.377 2.758l-1.225 6.418a1.948 1.948 0 01-1.914 1.582h-8.471c-.58 0-1.132-.26-1.5-.708a1.948 1.948 0 01-.414-1.608l1.225-6.417A1.947 1.947 0 0129.992.442h8.472c.58 0 1.13.258 1.5.708.371.446.522 1.037.413 1.608zM32.6 13.407c.59 0 1.149.266 1.519.728.37.458.511 1.06.385 1.635l-3.156 14.439a1.952 1.952 0 01-1.903 1.534H14.342a1.95 1.95 0 01-1.948-1.949v-.971a1.95 1.95 0 00-1.948-1.95h-.4a1.948 1.948 0 01-1.948-1.948V23.45c0-1.077.873-1.948 1.948-1.948h12.199a1.95 1.95 0 001.904-1.539l1.089-5.02a1.945 1.945 0 011.902-1.536h5.46zM9.817 31.759v7.852a1.949 1.949 0 01-1.948 1.949H4.891a1.95 1.95 0 01-1.949-1.948v-1.263c0-1.077.215-1.949-.714-1.949h-.215c-.859 0-1.361-.872-1.361-1.949v-2.692c0-1.076.873-1.948 1.948-1.948h5.269c1.076 0 1.948.872 1.948 1.948zm4.92 2.78h4.097c1.075 0 1.948.871 1.948 1.947v.9a1.95 1.95 0 01-1.948 1.949h-4.097a1.949 1.949 0 01-1.948-1.949v-.9c0-1.076.872-1.947 1.948-1.947z"/></svg>