<svg xmlns="http://www.w3.org/2000/svg" viewBox="0 0 306.53 282.18"><path d="M306.3 282.18H.23C.16 271.42.11 260.65 0 249.89c-.02-2.2 1.49-1.78 2.74-1.78 8.98-.02 17.95.01 26.93-.02 4.99-.02 4.41.58 4.41-4.44.01-99.49 0-139.83.01-239.33 0-1.44.05-2.89.07-4.33h238.2c.03 1.33.07 2.66.07 3.99 0 99.83.02 140.5-.06 240.32 0 3.03.74 3.93 3.82 3.86 9.19-.21 18.4-.08 27.59-.07 1.25 0 2.77-.42 2.74 1.78-.11 10.76-.16 21.52-.23 32.29zM153.36 248.1c10.31 0 20.62-.06 30.93.05 2.25.02 3.22-.48 3.04-2.91-.2-2.65-.03-5.33-.05-7.99-.06-9.22.61-18.51-.36-27.63-1.85-17.46-18.14-30.85-35.07-29.75-18.45 1.19-32.34 15.58-32.56 33.91-.13 10.44.06 20.88-.1 31.32-.04 2.62.87 3.09 3.24 3.07 10.31-.12 20.62-.05 30.93-.05zM136.2 128.51c0 4.88.07 9.76-.03 14.64-.04 1.89.6 2.48 2.48 2.47 9.74-.08 19.48-.07 29.22 0 1.83.01 2.53-.49 2.52-2.43-.08-9.76-.07-19.52 0-29.28.01-1.89-.61-2.46-2.48-2.44-9.74.08-19.48.1-29.22-.01-2.21-.03-2.55.88-2.51 2.75.09 4.77.03 9.54.03 14.3zm34.14-68.34c0-4.66-.06-9.31.03-13.96.04-1.99-.32-3.01-2.7-2.98-9.62.13-19.25.1-28.87.02-2.05-.02-2.65.7-2.64 2.7.08 9.64.08 19.29 0 28.93-.02 2.08.73 2.62 2.71 2.6 9.62-.08 19.25-.09 28.87 0 2.06.02 2.68-.67 2.64-2.67-.11-4.87-.04-9.75-.03-14.63zm-102.24 0c0 4.99.05 9.98-.03 14.97-.03 1.67.43 2.34 2.22 2.33 9.85-.07 19.7-.07 29.55 0 1.72.01 2.31-.53 2.3-2.27-.06-9.87-.06-19.74 0-29.6.01-1.7-.48-2.34-2.25-2.33-9.85.06-19.7.06-29.55 0-1.71-.01-2.31.53-2.28 2.28.1 4.88.03 9.76.03 14.64zm170.33.24c0-4.88-.07-9.76.03-14.64.04-1.8-.41-2.55-2.37-2.53-9.74.08-19.48.07-29.22 0-1.82-.01-2.51.48-2.5 2.42.08 9.76.07 19.51 0 29.27-.01 1.8.42 2.54 2.39 2.53 9.74-.09 19.48-.08 29.21 0 1.84.01 2.52-.49 2.48-2.42-.12-4.88-.04-9.76-.04-14.64zM84.72 145.58c4.98 0 9.96-.07 14.94.04 1.84.04 2.5-.48 2.48-2.41-.09-9.76-.08-19.52 0-29.28.01-1.85-.48-2.48-2.4-2.47-9.74.09-19.48.08-29.22 0-1.83-.01-2.48.45-2.46 2.39.09 9.76.11 19.52-.01 29.28-.03 2.23.88 2.52 2.73 2.48 4.65-.1 9.3-.03 13.95-.03zm136.73-34.08c-4.87 0-9.74.07-14.61-.04-1.85-.04-2.48.49-2.46 2.41.09 9.76.08 19.52 0 29.28-.01 1.86.52 2.48 2.42 2.47 9.74-.08 19.48-.08 29.22 0 1.87.02 2.46-.53 2.44-2.43-.09-9.76-.08-19.52 0-29.28.02-1.86-.49-2.5-2.41-2.45-4.87.12-9.74.04-14.61.04z"/></svg>